<?xml version="1.0" encoding="UTF-8"?>
<svg version="1.1" xmlns="http://www.w3.org/2000/svg" width="417" height="125">
<path d="M0 0 C-1.50413721 4.08673936 -3.46922465 7.71287609 -5.66015625 11.47265625 C-6.37832854 12.71415029 -7.09642524 13.95568806 -7.81445312 15.19726562 C-8.94085133 17.13579275 -10.06884194 19.07337248 -11.19848633 21.01000977 C-12.29404851 22.89100649 -13.38361846 24.77537683 -14.47265625 26.66015625 C-15.12500244 27.78043213 -15.77734863 28.90070801 -16.44946289 30.05493164 C-18.29070508 33.38060583 -18.29070508 33.38060583 -19 37 C-18.00820797 39.47685689 -18.00820797 39.47685689 -16.38671875 42.0078125 C-15.80245117 42.9862915 -15.21818359 43.96477051 -14.61621094 44.97290039 C-13.66149902 46.5331897 -13.66149902 46.5331897 -12.6875 48.125 C-11.3932331 50.29219401 -10.10027558 52.46017051 -8.80859375 54.62890625 C-8.16390137 55.70414551 -7.51920898 56.77938477 -6.85498047 57.88720703 C-4.25811029 62.24494522 -1.73347927 66.63934837 0.75 71.0625 C1.15516846 71.76842285 1.56033691 72.4743457 1.9777832 73.20166016 C7.3927243 82.87261644 8.83570903 93.41300555 6.20703125 104.27734375 C4.67396655 108.65333302 3.08336825 112.47961893 0 116 C-0.66 116 -1.32 116 -2 116 C-2.46897705 115.17798096 -2.9379541 114.35596191 -3.42114258 113.5090332 C-5.17070338 110.44302692 -6.92075815 107.37730368 -8.67114258 104.31176758 C-9.42687299 102.98798654 -10.18240957 101.66409483 -10.93774414 100.34008789 C-12.02698959 98.43085675 -13.11694443 96.5220321 -14.20703125 94.61328125 C-14.54152786 94.02662186 -14.87602448 93.43996246 -15.22065735 92.83552551 C-16.68815849 90.26731195 -18.17283424 87.72256643 -19.73706055 85.21166992 C-21 83 -21 83 -21 81 C-21.54964417 81.0169693 -22.09928833 81.0339386 -22.66558838 81.05142212 C-28.44143184 81.22741591 -34.2175719 81.38684171 -39.99414062 81.53710938 C-42.14334542 81.5951263 -44.29244459 81.65721753 -46.44140625 81.72363281 C-80.81276721 82.77777307 -80.81276721 82.77777307 -92.8125 71.8125 C-96 68 -96 68 -101 58 C-87.47 58 -73.94 58 -60 58 C-59.34 56.02 -58.68 54.04 -58 52 C-57.04707825 50.16787968 -56.04041592 48.36293985 -54.98828125 46.5859375 C-54.39466797 45.57660156 -53.80105469 44.56726562 -53.18945312 43.52734375 C-52.57005859 42.48707031 -51.95066406 41.44679687 -51.3125 40.375 C-50.71244141 39.35792969 -50.11238281 38.34085938 -49.49414062 37.29296875 C-48.28047216 35.23585936 -47.06407366 33.18035826 -45.8449707 31.12646484 C-43.39570868 26.97597531 -40.994164 22.79832867 -38.59765625 18.6171875 C-33.31731469 9.96723922 -25.97260314 3.57313899 -16.125 0.625 C-10.83467178 -0.4635449 -5.37055373 -0.16111661 0 0 Z M-30.4375 47.1875 C-36.72963346 52.75795507 -43.86783643 56.05535219 -52 58 C-52 58.33 -52 58.66 -52 59 C-51.38253906 59.15855469 -50.76507813 59.31710938 -50.12890625 59.48046875 C-40.7032975 62.07717375 -33.96485647 66.31081681 -26 72 C-26 62.76 -26 53.52 -26 44 C-27.85650864 44 -29.15900901 45.98103667 -30.4375 47.1875 Z " fill="#FAA819" transform="translate(106,4)"/>
<path d="M0 0 C-1.50834102 4.08223356 -3.460482 7.73553623 -5.625 11.5078125 C-5.97256348 12.115112 -6.32012695 12.7224115 -6.67822266 13.34811401 C-7.40961771 14.62470957 -8.14255541 15.90042241 -8.87695312 17.17529297 C-9.99946106 19.12406435 -11.1173201 21.07544247 -12.234375 23.02734375 C-17.67101085 32.50651627 -17.67101085 32.50651627 -20 36 C-20.66 36 -21.32 36 -22 36 C-22.165 36.825 -22.33 37.65 -22.5 38.5 C-26.06437715 46.81688001 -34.08819189 52.29496603 -42.1171875 55.96875 C-48.07351722 58.25801552 -53.6789406 58.31900674 -60 58 C-58.73658381 53.8575148 -57.19295694 50.30952345 -54.98828125 46.5859375 C-54.39466797 45.57660156 -53.80105469 44.56726562 -53.18945312 43.52734375 C-52.57005859 42.48707031 -51.95066406 41.44679687 -51.3125 40.375 C-50.71244141 39.35792969 -50.11238281 38.34085938 -49.49414062 37.29296875 C-48.28047216 35.23585936 -47.06407366 33.18035826 -45.8449707 31.12646484 C-43.39570868 26.97597531 -40.994164 22.79832867 -38.59765625 18.6171875 C-33.31731469 9.96723922 -25.97260314 3.57313899 -16.125 0.625 C-10.83467178 -0.4635449 -5.37055373 -0.16111661 0 0 Z " fill="#124B93" transform="translate(106,4)"/>
<path d="M0 0 C6.79517343 -0.07650946 13.59023441 -0.1287916 20.38574219 -0.16479492 C22.69405265 -0.17981541 25.00233488 -0.20023779 27.31054688 -0.22631836 C30.64199825 -0.26299885 33.97306995 -0.27979431 37.3046875 -0.29296875 C38.32488983 -0.30845261 39.34509216 -0.32393646 40.39620972 -0.33988953 C53.71005041 -0.3429671 64.05418956 4.43923115 74.17578125 12.86328125 C75.93139102 14.91963787 76.93604251 16.71858968 78.11401367 19.13354492 C78.46880295 19.85676437 78.82359222 20.57998383 79.18913269 21.32511902 C79.4567189 21.87782974 79.72430511 22.43054047 80 23 C73.66902216 23.19545783 67.33771103 23.37239696 61.00585938 23.53710938 C58.85665458 23.5951263 56.70755541 23.65721753 54.55859375 23.72363281 C20.18723279 24.77777307 20.18723279 24.77777307 8.1875 13.8125 C5.62201355 11.00679184 3.95234546 8.17981175 2.30078125 4.76171875 C1.86548096 3.86799561 1.43018066 2.97427246 0.98168945 2.0534668 C0.65773193 1.37582275 0.33377441 0.69817871 0 0 Z " fill="#B92126" transform="translate(5,62)"/>
<path d="M0 0 C3.77138115 3.33284846 4.93115724 5.57883323 6.6875 10.375 C6.6875 14.005 6.6875 17.635 6.6875 21.375 C-4.5325 21.375 -15.7525 21.375 -27.3125 21.375 C-22.88590654 27.34848523 -22.88590654 27.34848523 -16.89453125 28.61328125 C-10.11641758 28.79492322 -6.15997551 27.77716757 -0.3125 24.375 C0.3475 24.375 1.0075 24.375 1.6875 24.375 C4.91015625 29.55078125 4.91015625 29.55078125 5.6875 31.375 C4.6875 34.375 4.6875 34.375 3.03515625 35.54296875 C-6.64990671 39.86399684 -19.17144788 40.32834981 -29.1875 36.6875 C-32.87260233 34.89560316 -35.17244937 32.94175105 -37.3125 29.375 C-37.66699219 28.81554687 -38.02148438 28.25609375 -38.38671875 27.6796875 C-39.69933502 24.41199298 -39.61449052 21.510166 -39.625 18 C-39.64175781 16.71351562 -39.65851563 15.42703125 -39.67578125 14.1015625 C-39.15345442 8.74350022 -37.43502652 5.55228391 -33.75 1.6875 C-24.12606608 -5.7155261 -10.46509533 -5.13382035 0 0 Z M-24.3125 8.375 C-26.81429007 10.97393879 -26.81429007 10.97393879 -27.3125 14.375 C-19.7225 14.375 -12.1325 14.375 -4.3125 14.375 C-5.96588528 9.49640039 -5.96588528 9.49640039 -9.3125 6.375 C-15.32472662 4.97214712 -18.78645128 5.232737 -24.3125 8.375 Z " fill="#FFFFFF" transform="translate(233.3125,48.625)"/>
<path d="M0 0 C1.34094727 -0.0299707 1.34094727 -0.0299707 2.70898438 -0.06054688 C8.56819998 -0.05626069 13.75010222 0.66778068 18.4375 4.4375 C21.65821536 8.55137044 21.79191342 11.7849105 21.73046875 16.92578125 C21.72622391 17.62897995 21.72197906 18.33217865 21.71760559 19.0566864 C21.7009006 21.28819131 21.66326614 23.51877113 21.625 25.75 C21.60994248 27.2688671 21.59625594 28.78774846 21.58398438 30.30664062 C21.55102473 34.01722434 21.49930016 37.72727178 21.4375 41.4375 C18.7975 41.4375 16.1575 41.4375 13.4375 41.4375 C12.7775 39.7875 12.1175 38.1375 11.4375 36.4375 C10.61572266 36.97890625 10.61572266 36.97890625 9.77734375 37.53125 C2.32064573 41.8961464 -5.02803329 42.81249741 -13.5625 41.4375 C-17.38566013 39.38681435 -20.25604071 37.70198033 -21.5625 33.4375 C-21.87660204 28.93537071 -21.15590179 25.37875801 -18.75 21.5625 C-10.73013792 16.21592528 0.07792141 15.72066803 9.4375 14.4375 C7.2005913 11.70108742 6.01870818 10.54205597 2.484375 9.90625 C-4.78493969 9.97515346 -9.2798098 10.83077044 -15.5625 14.4375 C-18.5625 13.4375 -18.5625 13.4375 -20.375 10.625 C-21.5625 7.4375 -21.5625 7.4375 -20.88452148 5.34594727 C-16.72023895 -0.66553871 -6.54355056 -0.05212097 0 0 Z M2.6875 23.25 C1.45515625 23.40082031 0.2228125 23.55164063 -1.046875 23.70703125 C-4.51087364 24.42677319 -6.68299201 25.43173585 -9.5625 27.4375 C-9.23105019 29.92337357 -8.94988909 31.11209316 -7 32.75 C-1.8826533 34.1933542 2.26952064 33.01087169 6.875 30.75 C9.70439155 28.61717896 9.70439155 28.61717896 10.3125 25.1875 C10.35375 24.28 10.395 23.3725 10.4375 22.4375 C7.85804728 22.4375 5.23728789 22.92466399 2.6875 23.25 Z " fill="#FFFFFF" transform="translate(389.5625,45.5625)"/>
<path d="M0 0 C4.12705743 4.55399441 4.1239193 8.74639935 4.09765625 14.734375 C4.09443359 16.02988281 4.09121094 17.32539062 4.08789062 18.66015625 C4.07953598 20.02343817 4.07107104 21.38671942 4.0625 22.75 C4.05748168 24.12890465 4.05291935 25.50781104 4.04882812 26.88671875 C4.03704093 30.25785659 4.02058635 33.62890628 4 37 C0.04 37 -3.92 37 -8 37 C-8.03738281 35.16953125 -8.07476562 33.3390625 -8.11328125 31.453125 C-8.1789353 29.05206265 -8.24538283 26.6510219 -8.3125 24.25 C-8.34633789 22.44015625 -8.34633789 22.44015625 -8.38085938 20.59375 C-8.41630859 19.43359375 -8.45175781 18.2734375 -8.48828125 17.078125 C-8.51446533 16.00981445 -8.54064941 14.94150391 -8.56762695 13.84082031 C-9.05086618 10.66579399 -9.76279133 9.27383013 -12 7 C-16.56598329 5.47800557 -20.39892714 5.25283266 -24.8125 7.3125 C-27.22038518 8.98392208 -27.22038518 8.98392208 -29 12 C-29.36798693 14.71075544 -29.36798693 14.71075544 -29.4140625 17.76171875 C-29.47207031 19.43911133 -29.47207031 19.43911133 -29.53125 21.15039062 C-29.5621875 22.31763672 -29.593125 23.48488281 -29.625 24.6875 C-29.68300781 26.45577148 -29.68300781 26.45577148 -29.7421875 28.25976562 C-29.83654057 31.17291668 -29.91936242 34.08643703 -30 37 C-33.96 37 -37.92 37 -42 37 C-42 23.47 -42 9.94 -42 -4 C-39.03 -4 -36.06 -4 -33 -4 C-32.67 -2.02 -32.34 -0.04 -32 2 C-31.41992188 1.57847656 -30.83984375 1.15695313 -30.2421875 0.72265625 C-21.05330443 -5.72169244 -9.22927272 -8.07561363 0 0 Z " fill="#FFFFFF" transform="translate(288,50)"/>
<path d="M0 0 C3.96 0 7.92 0 12 0 C12 12.54 12 25.08 12 38 C21.24 38 30.48 38 40 38 C40 41.63 40 45.26 40 49 C26.8 49 13.6 49 0 49 C0 32.83 0 16.66 0 0 Z " fill="#FFFFFF" transform="translate(151,38)"/>
<path d="M0 0 C2.64 0 5.28 0 8 0 C8 2.64 8 5.28 8 8 C12.62 8 17.24 8 22 8 C22 10.97 22 13.94 22 17 C17.38 17 12.76 17 8 17 C8.33 24.26 8.66 31.52 9 39 C12.96 39 16.92 39 21 39 C21.87890625 45.93359375 21.87890625 45.93359375 22 48 C19.91270511 50.08729489 15.67519125 49.2768056 12.8125 49.3125 C11.67844727 49.35600586 11.67844727 49.35600586 10.52148438 49.40039062 C5.2055362 49.46032759 2.21234171 48.53102984 -2 45 C-3.35700647 42.28598706 -3.1123861 40.15153684 -3.09765625 37.1171875 C-3.09443359 35.95058594 -3.09121094 34.78398438 -3.08789062 33.58203125 C-3.07951172 32.35871094 -3.07113281 31.13539062 -3.0625 29.875 C-3.05798828 28.64394531 -3.05347656 27.41289063 -3.04882812 26.14453125 C-3.0370133 23.09630608 -3.02054028 20.04817686 -3 17 C-5.64 17 -8.28 17 -11 17 C-11 14.03 -11 11.06 -11 8 C-9.741875 7.979375 -8.48375 7.95875 -7.1875 7.9375 C-4.98300672 7.76957465 -4.98300672 7.76957465 -3 7 C-1.31016493 4.71019091 -0.81037139 2.78565167 0 0 Z " fill="#FFFFFF" transform="translate(307,38)"/>
<path d="M0 0 C1 1 1 1 1.09765625 3.50390625 C1.08605469 4.51324219 1.07445312 5.52257813 1.0625 6.5625 C1.05347656 7.57441406 1.04445313 8.58632813 1.03515625 9.62890625 C1.02355469 10.41136719 1.01195312 11.19382812 1 12 C0.01 11.95875 -0.98 11.9175 -2 11.875 C-6.36574332 11.91056614 -9.88204236 12.46449037 -14 14 C-16.70788633 19.39801603 -16.44184002 25.46045897 -16.625 31.375 C-16.68300781 32.90833984 -16.68300781 32.90833984 -16.7421875 34.47265625 C-16.83597566 36.98148965 -16.91905546 39.49071938 -17 42 C-20.63 42 -24.26 42 -28 42 C-28 28.47 -28 14.94 -28 1 C-25.36 1 -22.72 1 -20 1 C-18 3.5 -18 3.5 -17 6 C-16.319375 5.38125 -15.63875 4.7625 -14.9375 4.125 C-10.40157946 0.84369578 -5.5965352 -0.49381193 0 0 Z " fill="#FFFFFF" transform="translate(363,45)"/>
</svg>
