<?xml version="1.0" encoding="UTF-8"?>
<svg version="1.1" viewBox="0 0 2048 2000" width="1280" height="1280" xmlns="http://www.w3.org/2000/svg">
<path transform="translate(1558,72)" d="m0 0h78l20 2 20 1 8 1-1 5-10 16-6 10-14 25-9 16-14 24-14 25-10 17-14 25-14 24-15 26-24 42-15 26-8 13-16 28-15 26-14 25-17 28-11 20-14 24-14 25-12 21-13 22-14 25-12 18 2 4 7 10 14 24 15 28 14 24 13 23 14 24 16 28 15 26 14 24 20 35 13 22 15 26 32 56 10 17 14 24 15 26 14 25 15 25 16 28 9 15 9 16 20 34 14 24 15 26 16 29 11 21 12 27 11 29 11 35 10 37 7 34 5 31 4 48v46l-4 50-4 26-9 40-7 26-11 32-17 41-17 33-16 27-12 19-11 16-8 12-8 11-4-2-12-19-9-16-10-17-6-11-14-24-9-15-17-29-14-24-15-27-30-52-10-17-14-24-32-56-30-52-11-19-14-24-14-25-9-15-26-46-12-22-13-21h-666l-40 1-5 1h-16l-26-2-29-2-35-4-25-4-31-7-32-9-31-11-32-13-18-8-19-10-27-15-19-12-16-11-15-11-16-13-13-11-12-11-7-7-8-7-3-3v-2h-2l-7-8-8-8-9-11-8-9-10-13-12-16-12-18-12-19-10-17-6-10-7-14-10-19-9-19-2-6v-5l1-1h9l11 1h224l396-1 1-4 10-21 8-13 14-25 28-48 30-52 20-35 13-23 15-26 8-14 10-17 13-23 11-19 13-23 10-17 16-28 10-17 9-16 13-23 24-42 10-17 13-23 9-15 9-16 12-21 14-25 9-15 12-21 12-19 13-19 8-10 13-17 9-10 8-10 9-10 11-12 9-10 15-15 11-9 10-9 10-8 12-10 16-12 33-22 26-15 33-17 29-13 18-7 29-9 26-7 36-7 30-4zm-225 607m-1 2 1 2zm-1 2-10 17-12 16-9 10-7 9-18 22-9 10-16 17-10 10-8 7-11 10-11 9-11 10-10 8-12 9-18 13-14 10-18 12-28 17-25 14-23 12-31 14-39 15-40 13-26 7-62 14-30 6-19 2h-27l-42-1v1l5 1 92 5 26 3 29 5 39 9 28 8 23 8 37 14 26 12 19 10 28 14 19 11 24 15 15 10 19 14 17 13 17 14 11 9 15 13 12 11 8 7 10 10 7 8 11 12 7 8 13 14 11 14 10 15 17 28 8 13 1-2-11-23-10-21-8-21-13-36-16-58-6-28-7-41-4-43v-96l2-34 6-46 7-36 10-42 8-29 8-22 12-30 8-16 7-15zm8 641 1 2zm1 2 1 2z" fill="#FDA92A"/>
<path transform="translate(1558,72)" d="m0 0h78l20 2 20 1 8 1-1 5-10 16-6 10-14 25-9 16-14 24-14 25-10 17-14 25-14 24-15 26-24 42-15 26-8 13-16 28-15 26-14 25-17 28-11 20-14 24-14 25-12 21-13 22-14 25-12 18v5l-8 10-12 19-10 17-3 1-9 16-12 16-9 10-7 9-18 22-9 10-16 17-11 11-8 7-11 10-11 9-11 10-10 8-12 9-18 13-14 10-18 12-28 17-25 14-23 12-31 14-39 15-40 13-26 7-62 14-30 6-65-2-23-2 3-9 8-15 12-21 15-26 11-19 15-26 16-27 9-16 20-35 13-23 15-26 8-14 10-17 13-23 11-19 13-23 10-17 16-28 10-17 9-16 13-23 24-42 10-17 13-23 9-15 9-16 12-21 14-25 9-15 12-21 12-19 13-19 8-10 13-17 9-10 8-10 9-10 11-12 9-10 15-15 11-9 10-9 10-8 12-10 16-12 33-22 26-15 33-17 29-13 18-7 29-9 26-7 36-7 30-4z" fill="#104D96"/>
<path transform="translate(734,991)" d="m0 0h11l13 1 59 2-2 2-11 1h-27l-37-1 92 5 26 3 29 5 39 9 28 8 23 8 37 14 26 12 19 10 28 14 19 11 24 15 15 10 19 14 17 13 17 14 11 9 15 13 12 11 8 7 11 11 7 8 11 12 7 8 13 14 11 14 10 15 17 28 9 15 8 16 2-1 7 15v2l-22 1h-644l-40 1-5 1h-16l-26-2-29-2-35-4-25-4-31-7-32-9-31-11-32-13-18-8-19-10-27-15-19-12-16-11-15-11-16-13-13-11-12-11-7-7-8-7-3-3v-2h-2l-7-8-8-8-9-11-8-9-10-13-12-16-12-18-12-19-10-17-6-10-7-14-10-19-9-19-2-6v-5l1-1h9l11 1h224l396-1z" fill="#BA2B31"/>
<path transform="translate(1249,1345)" d="m0 0 9 1h6 2l7-1 1 1h6l3-1 13 3 5 2 1-2h3v2l7-1h16l2 1h11l4 2 2 3 9 2v1l-21 1h-681v-1h6v-2h2v-2l-2-1h2v-2l5-1 1 3 5-1 4 1v-2l8-1 8 1 13-1h35l11-1 2 1h5l3 1 11-1h16l7 1h3v2l6-1 9 1h2v-2l2 1-1 2 3-1 1-2 3 1 2 1 1-2v2h9l6 3v-2l16 2v-2l5 1h20l3-1 1 1 7 1v-2l4 1 18 1v-2l2 1-1 2 7-1 10-1 4-2 5 1-1 2h20l1-2v2l3-2 9-1 2 2 9 1 4-2 1-1 8 1v-2h3v2l11-2 2 1v-2l7-1h6l2 2v1h7l3-2h3l1 1v-1h10v2l4-1 6 2v2h2l1-3 7-1 2-2 3 1v2l8-1v2l6 2 2-2 6-1 3 1v2l5-1v-2h3v2h5l2-2 4 1v2l8-4v4l3-3h15l4-1 11-1 8-1h14l16-1 5 1 4-1v2l3-2h6l5-1 7-1 4 1v2h2l1-3h5v2h3l-1-3z" fill="#CF353F"/>
<path transform="translate(849 1e3)" d="m0 0 22 3 39 8 34 9 27 9 25 9 27 11 17 8 19 10 28 14 19 11 6 4-2 1v2h-2v2h2l-1 3-8-4-5-1v-2h-3l-3-4-2 1-4-2-2 1-1-2-7-2-5-5-5-1v-2l-4-2-5-2-9-3-12-5v-2l-5-2v-2h-2l-2-4-3-3-2 1v3l-4-2-6-1-1-3-9-3v-2h-3v-2h-2v-2l-6 1-7-2-1-2-3-1v-2l-3 1-3-2h-2v2l-10-3-5-4-1 2-12-6h-4l-1-3-11-4-13-1-5-3h-8l-9-2v-2l-9 1-4-2-1-1-4 1 2-1-1-2-4-1v-2l-3 1v-3l-3 1v-2l-5 1v-2l-10-2z" fill="#D0373F"/>
<path transform="translate(93,995)" d="m0 0h9l11 1h202l10 1v1l-30 1-12 1-4 1-2-2h-14v2l-7-1-5 2h-4l-8-2-10 1-6 1-4-1-11 3-4 1-5-1-16 3-3-2-3 3-3-1v-2l-5 1-2 3-4 1-4-1-5-2-3 1v2h-5v-2h-2v2l-5 2h-3v-2h-5l-7 3-3 2-5-5-7-1v-3l-2 1-1 6 4 1 2 6 3 2v8l-1 2h2v3h2l1 7 2 1v3h2l2 8h2l1-2 2 4v7l4 9-1 4h2l1 5 3 3-1 4-4-5-14-24-7-14-10-19-9-19-2-6v-5z" fill="#D0393E"/>
<path transform="translate(356,1292)" d="m0 0h9l1 2h5l4 4 7 1v2l6-1 9 4 3 2 1-1 9 1 7 2 3 3-1 4h2l1-2 5 5 4 2 3-2 12 4h4l2 2h8 4l5 3h3l2-2 5 1 4 1v3l4 2 1 3h13l6 3 5-1 2 1h12l3 5 4 1 5-2 5 1h3v2l5 2v-2l4-1v3l8-1h9l2 1v2l8-1v2l7-2h4l2 2 4-1 9 2 3 2v2h10l1 4h-18l-29-2-35-4-25-4-31-7-32-9-31-11-32-13-18-8-15-8z" fill="#D0363F"/>
<path transform="translate(1249,1345)" d="m0 0 9 1h6 2l7-1 1 1h6l3-1 13 3 5 2 1-2h3v2l7-1h16l2 1h11l4 2 2 3 9 2v1l-21 1h-175l-53-1 2-5h3v2h5l2-2 4 1v2l8-4v4l3-3h15l4-1 11-1 8-1h14l16-1 5 1 4-1v2l3-2h6l5-1 7-1 4 1v2h2l1-3h5v2h3l-1-3z" fill="#D33D3E"/>
<path transform="translate(1017,1350)" d="m0 0h11l2 2v1h7l3-2h3l1 1v-1h10v2l4-1 6 2v2h2l1-3 7-1 2-2 3 1v2l8-1v2l6 2 2-2 6-1 3 1v2l3 1v1h-189l2-2 14-1 4-2 5 1-1 2h20l1-2v2l3-2 9-1 2 2 9 1 4-2 1-1 8 1v-2h3v2l11-2 2 1v-2z" fill="#CE323F"/>
<path transform="translate(337,996)" d="m0 0h278l-3 3h-6v-2h-2l-2 4-4-1-1-2h-2v2h-6l-1-1-9 1v-3l-7 1v2h-3v-3h-12v2l-9 2h-2v-3h-2l-2 2h-5l-2-1v-2l-4 1-1 2-4-1 1-1-4-1v3h-9l-2-1-1 2h-4v-3h-5l-2 1v-2l-17 1-4 2v-2h-5l-2 1-8-1-4 2-2-1v-2h-121z" fill="#DF5C38"/>
<path transform="translate(734,991)" d="m0 0h11l13 1 59 2-2 2-11 1h-27l-37-1v1l-21-1v-1h14z" fill="#C84431"/>
<path transform="translate(615,996)" d="m0 0h70l-1 2h-3l-5 1-2-1-9 1-4 1-7-2-7 1-3-1h-5l-4 1-3-1-2 2v-2l-4 1-3-1v2l-7-1z" fill="#CD323F"/>
<path transform="translate(938,1353)" d="m0 0 5 1-1 2h20l1-2v2l3-2h4l1 4h-53l2-2 14-1z" fill="#CF3340"/>
<path transform="translate(293,996)" d="m0 0h22l10 1v1l-30 1-12 1-4 1-1-4z" fill="#D84C3B"/>
<path transform="translate(447,996)" d="m0 0h61v1l-8 2v-2l-17 1-4 2v-2h-5l-2 1-8-1-4 2-2-1v-2h-11z" fill="#CF3340"/>
<path transform="translate(322,1269)" d="m0 0 4 1 1 2 5 2 1 3h2v3l4-1 4 6-5-2-18-10-3-3 5 1z" fill="#D23B3E"/>
<path transform="translate(596,996)" d="m0 0h19l-3 3h-6v-2h-2l-2 4-4-1-1-2z" fill="#CF3340"/>
<path transform="translate(529,996)" d="m0 0h15l-2 4h-5l-2-1v-2l-4 1-1 2-4-1 3-1z" fill="#CF3340"/>
<path transform="translate(636,996)" d="m0 0h20l-2 2-7 1-3-1h-5l-4 1z" fill="#CF3340"/>
<path transform="translate(160,1122)" d="m0 0h5l4 9v3l-4-4z" fill="#D4413D"/>
<path transform="translate(974,1353)" d="m0 0 4 2 3 3h-10l-1-4z" fill="#CC323E"/>
<path transform="translate(615,996)" d="m0 0h8v4l-7-1z" fill="#CC323E"/>
</svg>
